<svg width="120" height="37" viewBox="0 0 120 37" fill="none" xmlns="http://www.w3.org/2000/svg">
<path d="M52.14 25.3162C50.2333 25.3162 48.74 24.8562 47.66 23.9362C46.5933 23.0029 46.0267 21.6562 45.96 19.8962C45.9467 19.5362 45.94 18.9495 45.94 18.1362C45.94 17.3095 45.9467 16.7095 45.96 16.3362C46.0267 14.6029 46.6067 13.2695 47.7 12.3362C48.7933 11.3895 50.2733 10.9162 52.14 10.9162C53.3133 10.9162 54.3667 11.1162 55.3 11.5162C56.2333 11.9029 56.9667 12.4629 57.5 13.1962C58.0467 13.9162 58.3267 14.7629 58.34 15.7362V15.7762C58.34 15.8829 58.2933 15.9762 58.2 16.0562C58.12 16.1229 58.0267 16.1562 57.92 16.1562H55.22C55.0467 16.1562 54.9133 16.1229 54.82 16.0562C54.7267 15.9762 54.6467 15.8362 54.58 15.6362C54.3933 14.9562 54.1 14.4829 53.7 14.2162C53.3 13.9362 52.7733 13.7962 52.12 13.7962C50.5467 13.7962 49.7333 14.6762 49.68 16.4362C49.6667 16.7962 49.66 17.3495 49.66 18.0962C49.66 18.8429 49.6667 19.4095 49.68 19.7962C49.7333 21.5562 50.5467 22.4362 52.12 22.4362C52.7733 22.4362 53.3067 22.2962 53.72 22.0162C54.1333 21.7229 54.42 21.2495 54.58 20.5962C54.6333 20.3962 54.7067 20.2629 54.8 20.1962C54.8933 20.1162 55.0333 20.0762 55.22 20.0762H57.92C58.04 20.0762 58.14 20.1162 58.22 20.1962C58.3133 20.2762 58.3533 20.3762 58.34 20.4962C58.3267 21.4695 58.0467 22.3229 57.5 23.0562C56.9667 23.7762 56.2333 24.3362 55.3 24.7362C54.3667 25.1229 53.3133 25.3162 52.14 25.3162ZM65.143 25.3162C63.4896 25.3162 62.2163 24.9229 61.323 24.1362C60.4296 23.3495 59.943 22.2429 59.863 20.8162C59.8496 20.6429 59.843 20.3429 59.843 19.9162C59.843 19.4895 59.8496 19.1895 59.863 19.0162C59.943 17.6029 60.443 16.5029 61.363 15.7162C62.283 14.9162 63.543 14.5162 65.143 14.5162C66.7563 14.5162 68.023 14.9162 68.943 15.7162C69.863 16.5029 70.363 17.6029 70.443 19.0162C70.4563 19.1895 70.463 19.4895 70.463 19.9162C70.463 20.3429 70.4563 20.6429 70.443 20.8162C70.363 22.2429 69.8763 23.3495 68.983 24.1362C68.0896 24.9229 66.8096 25.3162 65.143 25.3162ZM65.143 22.8762C65.7296 22.8762 66.163 22.7029 66.443 22.3562C66.723 21.9962 66.883 21.4495 66.923 20.7162C66.9363 20.5829 66.943 20.3162 66.943 19.9162C66.943 19.5162 66.9363 19.2495 66.923 19.1162C66.883 18.3962 66.7163 17.8562 66.423 17.4962C66.143 17.1362 65.7163 16.9562 65.143 16.9562C64.0363 16.9562 63.4496 17.6762 63.383 19.1162L63.363 19.9162L63.383 20.7162C63.4096 21.4495 63.563 21.9962 63.843 22.3562C64.1363 22.7029 64.5696 22.8762 65.143 22.8762ZM76.3295 25.3162C75.0229 25.3162 74.0029 24.9095 73.2695 24.0962C72.5495 23.2695 72.1562 22.1095 72.0895 20.6162L72.0695 19.9162L72.0895 19.1962C72.1429 17.7562 72.5362 16.6162 73.2695 15.7762C74.0162 14.9362 75.0362 14.5162 76.3295 14.5162C77.5429 14.5162 78.5229 14.9095 79.2695 15.6962V11.4162C79.2695 11.2695 79.3162 11.1495 79.4095 11.0562C79.5029 10.9629 79.6229 10.9162 79.7695 10.9162H82.2095C82.3562 10.9162 82.4762 10.9629 82.5695 11.0562C82.6629 11.1495 82.7095 11.2695 82.7095 11.4162V24.6162C82.7095 24.7495 82.6629 24.8695 82.5695 24.9762C82.4762 25.0695 82.3562 25.1162 82.2095 25.1162H79.9495C79.8162 25.1162 79.6962 25.0695 79.5895 24.9762C79.4962 24.8695 79.4495 24.7495 79.4495 24.6162V23.9762C78.7162 24.8695 77.6762 25.3162 76.3295 25.3162ZM77.4295 22.6362C78.0295 22.6362 78.4762 22.4495 78.7695 22.0762C79.0629 21.6895 79.2295 21.1962 79.2695 20.5962C79.2829 20.4229 79.2895 20.1695 79.2895 19.8362C79.2895 19.5162 79.2829 19.2695 79.2695 19.0962C79.2429 18.5495 79.0762 18.0962 78.7695 17.7362C78.4629 17.3762 78.0162 17.1962 77.4295 17.1962C76.8029 17.1962 76.3495 17.3829 76.0695 17.7562C75.8029 18.1295 75.6495 18.6429 75.6095 19.2962C75.5962 19.4295 75.5895 19.6362 75.5895 19.9162C75.5895 20.1962 75.5962 20.4029 75.6095 20.5362C75.6495 21.1895 75.8029 21.7029 76.0695 22.0762C76.3495 22.4495 76.8029 22.6362 77.4295 22.6362ZM89.8667 25.3162C88.2667 25.3162 87.0067 24.8829 86.0867 24.0162C85.1667 23.1495 84.6867 21.8895 84.6467 20.2362V19.5362C84.7001 17.9629 85.1867 16.7362 86.1067 15.8562C87.0401 14.9629 88.2867 14.5162 89.8467 14.5162C90.9801 14.5162 91.9334 14.7495 92.7067 15.2162C93.4934 15.6695 94.0801 16.2962 94.4667 17.0962C94.8667 17.8962 95.0667 18.8162 95.0667 19.8562V20.3362C95.0667 20.4695 95.0201 20.5895 94.9267 20.6962C94.8334 20.7895 94.7134 20.8362 94.5667 20.8362H88.1667V20.9762C88.1934 21.6029 88.3467 22.1095 88.6267 22.4962C88.9067 22.8829 89.3134 23.0762 89.8467 23.0762C90.1801 23.0762 90.4534 23.0095 90.6667 22.8762C90.8801 22.7295 91.0734 22.5562 91.2467 22.3562C91.3667 22.2095 91.4601 22.1229 91.5267 22.0962C91.6067 22.0562 91.7267 22.0362 91.8867 22.0362H94.3667C94.4867 22.0362 94.5867 22.0762 94.6667 22.1562C94.7601 22.2229 94.8067 22.3162 94.8067 22.4362C94.8067 22.7829 94.6067 23.1829 94.2067 23.6362C93.8201 24.0895 93.2534 24.4829 92.5067 24.8162C91.7601 25.1495 90.8801 25.3162 89.8667 25.3162ZM91.5467 18.8562V18.8162C91.5467 18.1629 91.3934 17.6495 91.0867 17.2762C90.7934 16.8895 90.3801 16.6962 89.8467 16.6962C89.3267 16.6962 88.9134 16.8895 88.6067 17.2762C88.3134 17.6495 88.1667 18.1629 88.1667 18.8162V18.8562H91.5467ZM100.251 25.1162C100.064 25.1162 99.9178 25.0762 99.8111 24.9962C99.7178 24.9029 99.6378 24.7762 99.5711 24.6162L95.7911 15.3362L95.7511 15.1562C95.7511 15.0362 95.7911 14.9362 95.8711 14.8562C95.9644 14.7629 96.0778 14.7162 96.2111 14.7162H98.4711C98.7644 14.7162 98.9578 14.8562 99.0511 15.1362L101.311 21.2762L103.591 15.1362C103.684 14.8562 103.878 14.7162 104.171 14.7162H106.431C106.551 14.7162 106.658 14.7629 106.751 14.8562C106.844 14.9362 106.891 15.0362 106.891 15.1562L106.851 15.3362L103.071 24.6162C103.004 24.7762 102.918 24.9029 102.811 24.9962C102.704 25.0762 102.558 25.1162 102.371 25.1162H100.251ZM112.975 25.3162C111.322 25.3162 110.048 24.9229 109.155 24.1362C108.262 23.3495 107.775 22.2429 107.695 20.8162C107.682 20.6429 107.675 20.3429 107.675 19.9162C107.675 19.4895 107.682 19.1895 107.695 19.0162C107.775 17.6029 108.275 16.5029 109.195 15.7162C110.115 14.9162 111.375 14.5162 112.975 14.5162C114.588 14.5162 115.855 14.9162 116.775 15.7162C117.695 16.5029 118.195 17.6029 118.275 19.0162C118.288 19.1895 118.295 19.4895 118.295 19.9162C118.295 20.3429 118.288 20.6429 118.275 20.8162C118.195 22.2429 117.708 23.3495 116.815 24.1362C115.922 24.9229 114.642 25.3162 112.975 25.3162ZM112.975 22.8762C113.562 22.8762 113.995 22.7029 114.275 22.3562C114.555 21.9962 114.715 21.4495 114.755 20.7162C114.768 20.5829 114.775 20.3162 114.775 19.9162C114.775 19.5162 114.768 19.2495 114.755 19.1162C114.715 18.3962 114.548 17.8562 114.255 17.4962C113.975 17.1362 113.548 16.9562 112.975 16.9562C111.868 16.9562 111.282 17.6762 111.215 19.1162L111.195 19.9162L111.215 20.7162C111.242 21.4495 111.395 21.9962 111.675 22.3562C111.968 22.7029 112.402 22.8762 112.975 22.8762Z" fill="#6975E3"/>
<path d="M31.1473 13.6477L31.1255 13.626C31.1238 13.6247 31.1224 13.6231 31.1215 13.6212L17.5006 0L3.87983 13.6209C3.87826 13.6225 3.8758 13.6256 3.8758 13.6256L3.85333 13.6474C1.77053 15.7419 0.447586 18.4725 0.0948177 21.4052C-0.25795 24.3379 0.379698 27.3044 1.90639 29.8331C3.43309 32.3619 5.76122 34.3077 8.52069 35.3612C11.2802 36.4147 14.3126 36.5157 17.136 35.6477C17.3735 35.5751 17.6275 35.5751 17.8651 35.6477C20.6882 36.5153 23.7205 36.4144 26.4798 35.3607C29.2391 34.307 31.567 32.3613 33.0936 29.8328C34.6202 27.3042 35.2579 24.3379 34.9053 21.4054C34.5526 18.4728 33.2299 15.7422 31.1473 13.6477ZM8.7232 22.6298C8.65689 22.6961 8.6043 22.7749 8.56844 22.8615C8.53257 22.948 8.5141 23.0408 8.51412 23.1346C8.53835 25.5386 9.21776 27.8904 10.4792 29.9371C10.5079 29.9835 10.5211 30.0379 10.517 30.0922C10.513 30.1465 10.4918 30.1982 10.4566 30.2399C10.4213 30.2816 10.3738 30.311 10.3209 30.324C10.2679 30.337 10.2122 30.333 10.1616 30.3124C9.21332 29.9135 8.35182 29.3336 7.62531 28.6053C6.13646 27.1162 5.29946 25.097 5.2981 22.9912C5.29675 20.8855 6.13117 18.8652 7.61812 17.3743L17.5006 7.49273L27.3826 17.3743C28.8698 18.865 29.7045 20.8853 29.703 22.9912C29.7018 25.097 28.8647 27.1162 27.3757 28.6053C26.6492 29.3336 25.7877 29.9135 24.8396 30.3124C24.7889 30.333 24.7332 30.337 24.6802 30.324C24.6273 30.311 24.5798 30.2814 24.5445 30.2399C24.5093 30.1982 24.488 30.1465 24.484 30.092C24.4799 30.0377 24.4931 29.9833 24.5218 29.9369C25.7835 27.8904 26.4633 25.5386 26.4879 23.1346C26.4879 23.0408 26.4692 22.948 26.4332 22.8613C26.3971 22.7746 26.3444 22.696 26.2779 22.6296L21.6037 17.6717C21.5571 17.6329 21.4985 17.6116 21.4378 17.6116C21.3773 17.6116 21.3186 17.6329 21.2721 17.6717C21.2255 17.7104 21.1942 17.7644 21.1833 17.824C21.1724 17.8837 21.1828 17.945 21.2127 17.9978C23.0281 21.283 21.467 26.0017 18.8637 28.6053L18.85 28.6191C18.4907 28.9745 18.0056 29.1738 17.5002 29.1736C16.9948 29.1734 16.5098 28.9738 16.1508 28.6182L16.1382 28.6053C13.5339 26.0017 11.9736 21.2835 13.7893 17.9985C13.8192 17.9457 13.8296 17.8844 13.8187 17.8247C13.8079 17.7651 13.7764 17.7111 13.7299 17.6724C13.6834 17.6336 13.6247 17.6123 13.5642 17.6123C13.5036 17.6123 13.4449 17.6336 13.3984 17.6724L8.7232 22.6298Z" fill="#6975E3"/>
</svg>
