<svg width="500" height="500" viewBox="0 0 500 500" fill="none" xmlns="http://www.w3.org/2000/svg">
<path d="M187 322.12C139.33 307.43 30.19 272.94 51 176.12C75 64.28 207.22 140.12 288.33 102.28C345.74 75.51 465.58 47.28 456.78 168.14C448.22 285.7 443.31 370.87 373.65 391.08C303.99 411.29 259.09 344.32 187 322.12Z" fill="#6975E3"/>
<path opacity="0.7" d="M187 322.12C139.33 307.43 30.19 272.94 51 176.12C75 64.28 207.22 140.12 288.33 102.28C345.74 75.51 465.58 47.28 456.78 168.14C448.22 285.7 443.31 370.87 373.65 391.08C303.99 411.29 259.09 344.32 187 322.12Z" fill="white"/>
<path d="M43.22 408.51H456.78" stroke="#263238" stroke-linecap="round" stroke-linejoin="round"/>
<path d="M114 294.51C120 299.51 118 328.91 136.76 316.26C155.52 303.61 123.56 296.12 125.38 288.95C127.94 278.95 170.15 290.95 163.07 271.75C155.99 252.55 130.75 281.43 124.12 274.28C118.02 267.7 148.4 243.92 134.24 239.88C120.08 235.84 123.09 270.23 114 270.23C106.9 270.23 108.23 237.35 95.18 248.98C82.13 260.61 110.65 272.08 106.92 279.3C104.08 284.79 81.63 271.24 82.64 283.89C83.65 296.54 107.6 289.22 114 294.51Z" fill="#6975E3"/>
<path d="M118 279.47C118 279.47 104.36 296 105.88 341.05" stroke="#263238" stroke-linecap="round" stroke-linejoin="round"/>
<path d="M144.63 302.9C142.21 298.03 122.14 294.7 133.63 284.13C145.12 273.56 145.08 296.22 150.19 296.13C157.34 296.01 155.95 265.71 167.75 273.53C179.55 281.35 156.09 293.72 159.85 299.31C163.3 304.46 184.12 287.82 184.59 297.99C185.06 308.16 162.41 300.63 160.96 306.76C159.83 311.53 182.15 315.87 172.25 322.76C162.35 329.65 159.18 308.69 153.74 310.05C149.59 311.05 155.13 328.34 146.79 325.64C138.45 322.94 147.17 308 144.63 302.9Z" fill="#6975E3"/>
<path opacity="0.3" d="M144.63 302.9C142.21 298.03 122.14 294.7 133.63 284.13C145.12 273.56 145.08 296.22 150.19 296.13C157.34 296.01 155.95 265.71 167.75 273.53C179.55 281.35 156.09 293.72 159.85 299.31C163.3 304.46 184.12 287.82 184.59 297.99C185.06 308.16 162.41 300.63 160.96 306.76C159.83 311.53 182.15 315.87 172.25 322.76C162.35 329.65 159.18 308.69 153.74 310.05C149.59 311.05 155.13 328.34 146.79 325.64C138.45 322.94 147.17 308 144.63 302.9Z" fill="black"/>
<path d="M155 303.11C155 303.11 116.13 299.06 112.29 341.05" stroke="#263238" stroke-linecap="round" stroke-linejoin="round"/>
<path d="M80.84 298.56C74.84 303.56 76.84 332.96 58.08 320.31C39.32 307.66 71.29 300.16 69.46 293C66.91 283 24.69 295 31.78 275.8C38.87 256.6 64.09 285.49 70.78 278.33C76.87 271.76 46.5 247.98 60.66 243.93C74.82 239.88 71.77 274.29 80.89 274.29C87.99 274.29 86.67 241.4 99.72 253.04C112.77 264.68 84.24 276.14 87.98 283.36C90.81 288.85 113.27 275.3 112.26 287.94C111.25 300.58 87.21 293.27 80.84 298.56Z" fill="#6975E3"/>
<path opacity="0.3" d="M80.84 298.56C74.84 303.56 76.84 332.96 58.08 320.31C39.32 307.66 71.29 300.16 69.46 293C66.91 283 24.69 295 31.78 275.8C38.87 256.6 64.09 285.49 70.78 278.33C76.87 271.76 46.5 247.98 60.66 243.93C74.82 239.88 71.77 274.29 80.89 274.29C87.99 274.29 86.67 241.4 99.72 253.04C112.77 264.68 84.24 276.14 87.98 283.36C90.81 288.85 113.27 275.3 112.26 287.94C111.25 300.58 87.21 293.27 80.84 298.56Z" fill="white"/>
<path d="M76.54 283.52C76.54 283.52 94.24 307.16 98.29 346.61" stroke="#263238" stroke-linecap="round" stroke-linejoin="round"/>
<path d="M89.21 408.34H116.81C119.372 408.351 121.844 407.396 123.733 405.665C125.622 403.933 126.789 401.553 127 399L131.34 348C131.453 346.599 131.275 345.19 130.817 343.861C130.359 342.533 129.631 341.314 128.678 340.28C127.726 339.247 126.569 338.422 125.282 337.857C123.995 337.293 122.605 337.001 121.2 337H84.87C83.465 337.001 82.0754 337.293 80.7889 337.857C79.5024 338.422 78.3468 339.247 77.395 340.281C76.4433 341.314 75.716 342.534 75.259 343.862C74.802 345.191 74.6253 346.6 74.74 348L79.08 399C79.2883 401.544 80.4456 403.917 82.3222 405.647C84.1988 407.377 86.6575 408.338 89.21 408.34Z" fill="#6975E3" stroke="#263238" stroke-linecap="round" stroke-linejoin="round"/>
<path d="M295.88 335.1C286.65 335.1 260.01 329.1 260.01 329.1H331.75C331.75 329.1 305.1 335.1 295.88 335.1Z" fill="#263238" stroke="#263238" stroke-linecap="round" stroke-linejoin="round"/>
<path d="M304.1 332.09H287.66V343.36H304.1V332.09Z" fill="#858585" stroke="#263238" stroke-linecap="round" stroke-linejoin="round"/>
<path d="M306.53 343.36H285.23V391.81H306.53V343.36Z" fill="#999999" stroke="#263238" stroke-linecap="round" stroke-linejoin="round"/>
<path d="M335.89 314.71H322C323.54 305.17 324.68 295.45 325.38 285.82H339.22C338.56 295.45 337.43 305.17 335.89 314.71Z" fill="#858585" stroke="#263238" stroke-linecap="round" stroke-linejoin="round"/>
<path d="M356.92 200.48H297.24C290.24 200.48 285.63 206.41 286.99 213.39C290.801 234.713 293.08 256.281 293.81 277.93C293.803 279.407 294.09 280.87 294.654 282.236C295.217 283.601 296.047 284.84 297.093 285.882C298.14 286.924 299.383 287.748 300.751 288.305C302.118 288.863 303.583 289.143 305.06 289.13H355.3C358.422 289.099 361.431 287.953 363.783 285.899C366.136 283.846 367.677 281.02 368.13 277.93C370.552 256.507 371.428 234.938 370.75 213.39C370.42 206.41 363.93 200.48 356.92 200.48Z" fill="#858585" stroke="#263238" stroke-linecap="round" stroke-linejoin="round"/>
<path d="M360.17 213.39C360.848 234.938 359.972 256.507 357.55 277.93C357.097 281.02 355.556 283.846 353.203 285.899C350.851 287.953 347.842 289.099 344.72 289.13H305.06C303.583 289.143 302.118 288.863 300.751 288.305C299.383 287.748 298.14 286.924 297.093 285.882C296.047 284.84 295.217 283.601 294.654 282.236C294.09 280.87 293.803 279.407 293.81 277.93C293.084 256.282 290.808 234.713 287 213.39C285.64 206.39 290.23 200.48 297.25 200.48H346.34C353.35 200.48 359.84 206.41 360.17 213.39Z" fill="#999999" stroke="#263238" stroke-linecap="round" stroke-linejoin="round"/>
<path d="M331.75 400.51C331.75 400.776 331.691 401.039 331.576 401.279C331.461 401.519 331.294 401.73 331.087 401.897C330.879 402.064 330.637 402.182 330.378 402.244C330.119 402.305 329.85 402.307 329.59 402.25C323.06 400.83 303.51 396.71 295.88 396.71C288.25 396.71 268.69 400.83 262.16 402.25C261.901 402.307 261.632 402.305 261.373 402.244C261.114 402.183 260.873 402.064 260.666 401.897C260.46 401.73 260.294 401.519 260.18 401.278C260.066 401.038 260.008 400.776 260.01 400.51C260.009 399.441 260.375 398.404 261.047 397.572C261.718 396.74 262.655 396.164 263.7 395.94C271.34 394.3 288.77 390.73 295.88 390.73C302.99 390.73 320.42 394.3 328.06 395.94C329.104 396.166 330.04 396.743 330.711 397.574C331.382 398.405 331.749 399.441 331.75 400.51Z" fill="#263238" stroke="#263238" stroke-linecap="round" stroke-linejoin="round"/>
<path d="M260 396.91C258.785 396.908 257.596 397.267 256.585 397.941C255.574 398.615 254.785 399.573 254.319 400.696C253.853 401.818 253.731 403.053 253.967 404.245C254.204 405.437 254.789 406.532 255.648 407.392C256.508 408.251 257.603 408.836 258.795 409.072C259.987 409.309 261.222 409.187 262.344 408.721C263.467 408.255 264.425 407.466 265.099 406.455C265.773 405.444 266.132 404.255 266.13 403.04C266.127 401.415 265.481 399.857 264.332 398.708C263.183 397.559 261.625 396.913 260 396.91ZM260 406.37C259.341 406.372 258.696 406.178 258.147 405.814C257.598 405.449 257.17 404.93 256.916 404.321C256.663 403.713 256.595 403.043 256.723 402.396C256.85 401.75 257.166 401.156 257.632 400.689C258.097 400.222 258.69 399.904 259.337 399.775C259.983 399.645 260.653 399.711 261.262 399.963C261.871 400.214 262.392 400.641 262.758 401.189C263.124 401.737 263.32 402.381 263.32 403.04C263.32 403.921 262.971 404.767 262.348 405.391C261.726 406.015 260.881 406.367 260 406.37Z" fill="#858585" stroke="#263238" stroke-linecap="round" stroke-linejoin="round"/>
<path d="M295.88 396.91C294.663 396.906 293.472 397.264 292.458 397.939C291.445 398.613 290.655 399.574 290.188 400.698C289.722 401.823 289.601 403.06 289.839 404.254C290.078 405.448 290.666 406.544 291.529 407.402C292.392 408.261 293.491 408.844 294.686 409.077C295.881 409.309 297.118 409.182 298.24 408.71C299.362 408.238 300.319 407.443 300.988 406.427C301.658 405.41 302.01 404.217 302 403C301.987 401.384 301.337 399.838 300.191 398.698C299.045 397.558 297.496 396.915 295.88 396.91ZM295.88 406.37C295.223 406.372 294.579 406.179 294.031 405.816C293.483 405.453 293.055 404.936 292.8 404.33C292.546 403.724 292.476 403.057 292.6 402.411C292.724 401.766 293.037 401.171 293.498 400.703C293.959 400.235 294.549 399.914 295.192 399.78C295.836 399.646 296.505 399.706 297.114 399.951C297.724 400.197 298.248 400.617 298.619 401.16C298.99 401.702 299.192 402.343 299.2 403C299.205 403.44 299.123 403.876 298.959 404.284C298.795 404.692 298.551 405.064 298.242 405.377C297.934 405.69 297.566 405.939 297.161 406.11C296.755 406.28 296.32 406.369 295.88 406.37Z" fill="#858585" stroke="#263238" stroke-linecap="round" stroke-linejoin="round"/>
<path d="M331 396.91C329.785 396.91 328.598 397.27 327.588 397.945C326.578 398.621 325.791 399.58 325.326 400.703C324.862 401.825 324.741 403.06 324.979 404.252C325.216 405.443 325.802 406.537 326.662 407.395C327.522 408.253 328.617 408.837 329.808 409.073C331 409.309 332.235 409.186 333.357 408.72C334.478 408.253 335.437 407.465 336.11 406.454C336.784 405.443 337.142 404.255 337.14 403.04C337.14 402.234 336.981 401.436 336.672 400.692C336.364 399.947 335.911 399.271 335.341 398.702C334.771 398.133 334.094 397.681 333.349 397.374C332.604 397.066 331.806 396.909 331 396.91ZM331 406.37C330.341 406.37 329.698 406.175 329.15 405.809C328.602 405.443 328.176 404.923 327.923 404.314C327.671 403.706 327.605 403.036 327.734 402.39C327.862 401.744 328.18 401.151 328.645 400.685C329.111 400.22 329.704 399.902 330.35 399.774C330.996 399.645 331.666 399.711 332.274 399.963C332.883 400.215 333.403 400.642 333.769 401.19C334.135 401.738 334.33 402.381 334.33 403.04C334.33 403.923 333.979 404.77 333.355 405.395C332.73 406.019 331.883 406.37 331 406.37Z" fill="#858585" stroke="#263238" stroke-linecap="round" stroke-linejoin="round"/>
<path d="M314.06 312.77C290.118 313.53 266.152 312.47 242.37 309.6C241.272 309.402 240.144 309.451 239.068 309.744C237.992 310.037 236.994 310.566 236.148 311.293C235.302 312.02 234.629 312.927 234.178 313.947C233.727 314.967 233.509 316.075 233.54 317.19V318.36C233.598 320.817 234.512 323.176 236.124 325.031C237.736 326.886 239.945 328.12 242.37 328.52C266.152 331.385 290.118 332.445 314.06 331.69V312.77Z" fill="#999999" stroke="#263238" stroke-linecap="round" stroke-linejoin="round"/>
<path d="M351.66 328.21C336.8 330.07 322.07 331.3 307.11 331.94C306.248 331.967 305.39 331.82 304.586 331.507C303.783 331.195 303.05 330.723 302.433 330.121C301.816 329.519 301.327 328.798 300.995 328.002C300.662 327.207 300.494 326.352 300.5 325.49V319.74C300.518 317.983 301.217 316.302 302.45 315.05C303.683 313.798 305.353 313.074 307.11 313.03C322.11 312.38 336.8 311.15 351.66 309.29C352.474 309.137 353.312 309.169 354.112 309.382C354.912 309.596 355.654 309.986 356.283 310.524C356.912 311.063 357.413 311.735 357.748 312.492C358.083 313.25 358.245 314.072 358.22 314.9V320.65C358.172 322.475 357.491 324.226 356.294 325.605C355.098 326.984 353.46 327.905 351.66 328.21Z" fill="#858585" stroke="#263238" stroke-linecap="round" stroke-linejoin="round"/>
<path d="M252.17 406C252.17 402.66 251.44 396 247.5 387.35L242.37 368.85L226.37 375.68L230.87 389.85C230.87 389.85 217.12 396.41 212.04 398.18C208.66 399.36 198.54 401.68 199.04 406.02C199.04 406.326 199.1 406.629 199.217 406.912C199.334 407.194 199.506 407.451 199.722 407.668C199.939 407.884 200.196 408.056 200.478 408.173C200.761 408.29 201.064 408.35 201.37 408.35H249.83C250.139 408.351 250.444 408.291 250.729 408.174C251.015 408.056 251.273 407.883 251.491 407.664C251.709 407.445 251.881 407.186 251.997 406.9C252.114 406.614 252.173 406.308 252.17 406Z" fill="white" stroke="#263238" stroke-linecap="round" stroke-linejoin="round"/>
<path d="M243.36 395.17C240.86 397.01 227.53 399.34 230.87 396.67C234.21 394 230.87 389.84 230.87 389.84C230.87 389.84 217.12 396.4 212.04 398.17C208.66 399.35 198.54 401.67 199.04 406.01C199.04 406.316 199.1 406.619 199.217 406.902C199.334 407.184 199.506 407.441 199.722 407.658C199.939 407.874 200.196 408.046 200.478 408.163C200.761 408.28 201.064 408.34 201.37 408.34H249.83C250.138 408.341 250.443 408.281 250.728 408.163C251.012 408.046 251.271 407.872 251.488 407.653C251.705 407.435 251.876 407.175 251.991 406.889C252.107 406.604 252.164 406.298 252.16 405.99C251.996 400.924 250.961 395.924 249.1 391.21C246.35 391.24 245.86 393.34 243.36 395.17Z" fill="#6975E3" stroke="#263238" stroke-linecap="round" stroke-linejoin="round"/>
<path d="M263.74 408.34H299.24C299.595 408.339 299.939 408.215 300.213 407.989C300.486 407.763 300.673 407.449 300.74 407.1C301.28 404.28 301.16 397.97 297.96 389.59L297.64 372.59L279.46 375.68L281.76 390.18C281.76 390.18 274.44 398.24 270.96 399.68C268.52 400.68 262.96 400.8 262.22 406.68C262.2 406.891 262.225 407.104 262.293 407.305C262.36 407.506 262.469 407.69 262.612 407.846C262.756 408.003 262.93 408.127 263.124 408.212C263.318 408.297 263.528 408.341 263.74 408.34Z" fill="white" stroke="#263238" stroke-linecap="round" stroke-linejoin="round"/>
<path d="M292 395.24C288.25 397.86 285.48 398.17 287.23 394.24C288.98 390.31 281.8 390.17 281.8 390.17C281.8 390.17 274.48 398.23 271 399.67C268.56 400.67 263 400.79 262.26 406.67C262.234 406.884 262.255 407.101 262.32 407.307C262.384 407.513 262.492 407.702 262.636 407.863C262.78 408.024 262.956 408.152 263.153 408.24C263.351 408.327 263.564 408.372 263.78 408.37H299.28C299.635 408.369 299.979 408.245 300.253 408.019C300.526 407.793 300.713 407.479 300.78 407.13C301.32 404.31 301.2 398 298 389.62C295.22 390.26 295.72 392.61 292 395.24Z" fill="#6975E3" stroke="#263238" stroke-linecap="round" stroke-linejoin="round"/>
<path d="M260.21 278.51C260.21 278.51 256.63 282.17 242 284.51C227.37 286.85 197 294.17 197.37 306.17C197.74 318.17 225.71 382.17 225.71 382.17C225.71 382.17 239.71 379.51 246.21 375.51C246.21 375.51 234.94 329.84 226.49 317.84C226.49 317.84 264.42 313.17 285.4 304.51C306.38 295.85 294.04 276.11 294.04 276.11L260.21 278.51Z" fill="#263238" stroke="#263238" stroke-linecap="round" stroke-linejoin="round"/>
<path d="M284 276.82C284 276.82 289.38 285.82 285.36 290.82C281.34 295.82 258.51 305.15 261.09 316.49C263.67 327.83 272.19 343.82 277.74 381.82C277.74 381.82 290.67 379.82 299.33 376.15C299.33 376.15 300.77 337.49 290.72 320.82C290.72 320.82 319.5 315.49 322.42 305.82C325.34 296.15 319.88 281.37 319.77 276.09L284 276.82Z" fill="#263238" stroke="#263238" stroke-linecap="round" stroke-linejoin="round"/>
<path d="M266.7 291.14C266.034 291.09 265.366 291.09 264.7 291.14" stroke="#7F7F7F" stroke-width="0.75" stroke-linecap="round" stroke-linejoin="round"/>
<path d="M268 285.17C268 285.17 273.91 286.91 276.23 294.62C276.26 294.747 276.25 294.88 276.2 295C276.15 295.12 276.064 295.222 275.954 295.291C275.843 295.359 275.713 295.391 275.584 295.382C275.454 295.373 275.33 295.323 275.23 295.24C273.646 293.61 271.695 292.383 269.54 291.66" stroke="#7F7F7F" stroke-width="0.75" stroke-linecap="round" stroke-linejoin="round"/>
<path d="M223.71 317.42C223.71 314.17 209.71 312.42 213.46 309.42C217.21 306.42 225.71 316.17 225.71 316.17" stroke="#7F7F7F" stroke-width="0.75" stroke-linecap="round" stroke-linejoin="round"/>
<path d="M292.5 330.42C292.5 326.7 279.12 324.67 279.79 320.67C280.46 316.67 288.96 324.55 288.96 324.55" stroke="#7F7F7F" stroke-width="0.75" stroke-linecap="round" stroke-linejoin="round"/>
<path d="M224.23 382.4L225.7 385.8C225.781 385.988 225.926 386.142 226.108 386.235C226.291 386.328 226.5 386.355 226.7 386.31C229.93 385.58 243.41 382.4 248.14 379C248.277 378.899 248.381 378.76 248.438 378.599C248.495 378.439 248.503 378.265 248.46 378.1L247.54 374.31C247.509 374.179 247.448 374.057 247.362 373.954C247.276 373.85 247.167 373.768 247.044 373.714C246.921 373.66 246.787 373.635 246.653 373.641C246.519 373.647 246.387 373.685 246.27 373.75C244.14 374.91 238.21 377.68 224.82 381.2C224.698 381.233 224.584 381.292 224.486 381.372C224.389 381.453 224.309 381.553 224.253 381.666C224.198 381.78 224.167 381.904 224.163 382.031C224.159 382.157 224.181 382.283 224.23 382.4Z" fill="#999999" stroke="#263238" stroke-linecap="round" stroke-linejoin="round"/>
<path d="M276.15 379.6C276.133 379.483 276.147 379.363 276.189 379.253C276.232 379.142 276.303 379.044 276.394 378.969C276.486 378.894 276.595 378.843 276.711 378.822C276.828 378.801 276.948 378.811 277.06 378.85C278.685 379.357 280.422 379.381 282.06 378.92C285.77 378.08 296.38 374.72 299.54 373.71C299.644 373.677 299.754 373.669 299.861 373.686C299.969 373.704 300.07 373.746 300.158 373.811C300.246 373.875 300.317 373.959 300.366 374.057C300.415 374.154 300.44 374.261 300.44 374.37V378.79C300.441 378.924 300.403 379.055 300.33 379.167C300.257 379.279 300.153 379.367 300.03 379.42C297.55 380.53 284.26 386.22 277.31 384.67C277.174 384.638 277.052 384.566 276.959 384.462C276.866 384.358 276.807 384.228 276.79 384.09L276.15 379.6Z" fill="#999999" stroke="#263238" stroke-linecap="round" stroke-linejoin="round"/>
<path d="M286.85 287C286.753 288.382 286.249 289.705 285.4 290.8C282.46 294.45 269.53 300.4 263.74 307.8" stroke="#7F7F7F" stroke-linecap="round" stroke-linejoin="round"/>
<path d="M286.22 282C286.444 282.737 286.614 283.489 286.73 284.25" stroke="#7F7F7F" stroke-linecap="round" stroke-linejoin="round"/>
<path d="M209.64 400.42C210.456 401.908 211.046 403.509 211.39 405.17H247.5C247.634 403.596 248.346 402.128 249.5 401.05" stroke="#263238" stroke-linecap="round" stroke-linejoin="round"/>
<path d="M272.39 400.42C272.39 400.42 277.39 400.8 279.26 405.17H298.14C298.71 403.865 299.048 402.471 299.14 401.05" stroke="#263238" stroke-linecap="round" stroke-linejoin="round"/>
<path d="M242.79 222C243.25 223.76 243.73 225.51 244.21 227.22C249.21 245.22 255.71 279.47 255.71 279.47C287.71 286.22 321.46 279.47 321.46 279.47C321.64 272.01 320.73 262.16 319.72 251.81C324.96 250.36 328.72 245.52 328.96 237.47C329.21 227.72 327.44 210.17 326.46 201.97C325.59 194.76 326.21 190.47 315.04 184.97C309.44 181.74 300.14 180.21 288.71 178.68C266.21 175.68 249.97 180.23 244.21 182.68C239.64 181.48 238.37 186.84 238.37 186.84C235.84 184.93 232.9 193.03 232.9 193.03C225.5 202.47 219.68 218.37 217.74 224.03C217.311 225.267 216.524 226.35 215.48 227.14C210.23 231.14 213.15 236.09 213.15 236.09L223.9 239.38C223.9 239.38 229.11 240.74 233.09 233.89C236.41 228.17 241.85 218.46 242.79 222Z" fill="#6975E3"/>
<path opacity="0.3" d="M225.88 234.87C225.88 234.87 225.63 229.87 221.63 229C217.63 228.13 222.75 226.63 225.88 227.38C229.01 228.13 228.28 225.38 230.96 220.88C233.64 216.38 234.96 212.82 237.22 215.41C239.48 218 241.83 218.41 242.79 221.95C243.75 225.49 239 233.95 239 233.95L231.54 239.74L227.75 241.86H222.1L220.16 236.97L225.88 234.87Z" fill="black"/>
<path d="M242.79 222C243.25 223.76 243.73 225.51 244.21 227.22C249.21 245.22 255.71 279.47 255.71 279.47C287.71 286.22 321.46 279.47 321.46 279.47C321.64 272.01 320.73 262.16 319.72 251.81C324.96 250.36 328.72 245.52 328.96 237.47C329.21 227.72 327.44 210.17 326.46 201.97C325.59 194.76 326.21 190.47 315.04 184.97C309.44 181.74 300.14 180.21 288.71 178.68C266.21 175.68 249.97 180.23 244.21 182.68C239.64 181.48 238.37 186.84 238.37 186.84C235.84 184.93 232.9 193.03 232.9 193.03C225.5 202.47 219.68 218.37 217.74 224.03C217.311 225.267 216.524 226.35 215.48 227.14C210.23 231.14 213.15 236.09 213.15 236.09L223.9 239.38C223.9 239.38 229.11 240.74 233.09 233.89C236.41 228.17 241.85 218.46 242.79 222Z" stroke="#263238" stroke-linecap="round" stroke-linejoin="round"/>
<path opacity="0.3" d="M321.46 279.42C321.485 272.994 321.168 266.572 320.51 260.18C321.6 275.41 289.89 280.18 288.89 271.92C287.89 263.66 319.72 251.76 302.4 255.92C287.29 259.55 258 256.08 250.8 255.14C253.57 268.14 255.71 279.42 255.71 279.42C287.71 286.17 321.46 279.42 321.46 279.42Z" fill="black"/>
<path opacity="0.3" d="M306.92 202.92C306.92 202.92 302.39 216.17 302.4 223.17C302.41 230.17 289.71 234.87 289.68 234.87C296.49 233.49 303.11 231.66 306.27 230.74C306.814 230.586 307.288 230.247 307.609 229.782C307.93 229.316 308.079 228.753 308.03 228.19C307.223 219.792 306.853 211.357 306.92 202.92Z" fill="black"/>
<path d="M238.6 199.59C238.643 205.833 239.77 212.022 241.93 217.88C241.993 218.052 241.999 218.239 241.948 218.415C241.897 218.59 241.791 218.745 241.646 218.856C241.501 218.968 241.325 219.03 241.142 219.034C240.959 219.039 240.78 218.985 240.63 218.88C238.91 217.65 236.48 215.15 234.29 210.11" stroke="#263238" stroke-width="0.75" stroke-linecap="round" stroke-linejoin="round"/>
<path d="M323.46 240.42C320.82 231.67 316.25 229.48 312.71 229.26C312.601 229.244 312.498 229.197 312.416 229.123C312.334 229.05 312.275 228.953 312.247 228.847C312.219 228.74 312.224 228.627 312.26 228.523C312.296 228.418 312.362 228.327 312.45 228.26C314.51 227.15 318.52 226.26 323.45 231.72" stroke="#263238" stroke-width="0.75" stroke-linecap="round" stroke-linejoin="round"/>
<path d="M272.73 215.38C272.687 215.748 272.511 216.087 272.234 216.334C271.958 216.58 271.6 216.716 271.23 216.716C270.86 216.716 270.502 216.58 270.225 216.334C269.949 216.087 269.773 215.748 269.73 215.38C269.706 215.168 269.726 214.954 269.79 214.751C269.854 214.548 269.961 214.361 270.103 214.202C270.244 214.043 270.418 213.916 270.612 213.829C270.807 213.742 271.017 213.696 271.23 213.696C271.443 213.696 271.653 213.742 271.848 213.829C272.042 213.916 272.216 214.043 272.357 214.202C272.499 214.361 272.605 214.548 272.67 214.751C272.734 214.954 272.754 215.168 272.73 215.38Z" fill="#999999" stroke="#263238" stroke-width="0.75" stroke-linecap="round" stroke-linejoin="round"/>
<path d="M274.76 232.4C274.76 232.697 274.672 232.987 274.507 233.233C274.342 233.48 274.108 233.672 273.834 233.786C273.56 233.899 273.258 233.929 272.967 233.871C272.676 233.813 272.409 233.67 272.199 233.461C271.99 233.251 271.847 232.984 271.789 232.693C271.731 232.402 271.761 232.1 271.874 231.826C271.988 231.552 272.18 231.318 272.427 231.153C272.673 230.988 272.963 230.9 273.26 230.9C273.658 230.9 274.039 231.058 274.321 231.339C274.602 231.621 274.76 232.002 274.76 232.4Z" fill="#999999" stroke="#263238" stroke-width="0.75" stroke-linecap="round" stroke-linejoin="round"/>
<path d="M279.79 273.42C279.792 273.719 279.705 274.012 279.54 274.262C279.376 274.511 279.141 274.706 278.865 274.822C278.589 274.938 278.285 274.969 277.992 274.912C277.698 274.855 277.428 274.712 277.216 274.501C277.004 274.29 276.859 274.021 276.8 273.728C276.741 273.435 276.77 273.131 276.884 272.854C276.998 272.578 277.192 272.342 277.44 272.175C277.689 272.009 277.981 271.92 278.28 271.92C278.679 271.92 279.061 272.078 279.344 272.359C279.627 272.64 279.787 273.021 279.79 273.42Z" fill="#999999" stroke="#263238" stroke-linecap="round" stroke-linejoin="round"/>
<path d="M251.07 243.55C251.07 243.55 246.16 248.23 248.5 248.31C250.84 248.39 253.79 245.17 256.5 244.8C259.21 244.43 254.83 242.8 254.83 242.8L251.07 243.55Z" fill="white" stroke="#263238" stroke-linecap="round" stroke-linejoin="round"/>
<path d="M279.74 238.28C279.52 238.083 279.262 237.933 278.981 237.84C278.701 237.747 278.404 237.713 278.11 237.74C275.71 237.94 268.81 238.46 266.21 238.3C261.59 238.01 247.98 235.13 247.98 235.13C247.667 235.077 247.346 235.094 247.04 235.18L238.61 237.66C238.303 237.749 238.022 237.91 237.79 238.13L232.69 242.81C232.522 242.967 232.381 243.149 232.27 243.35L231.21 245.29C230.991 245.688 230.909 246.148 230.976 246.597C231.042 247.047 231.255 247.462 231.58 247.78L240 248C240.52 248.025 241.03 247.845 241.42 247.5L243.92 245.36C244.087 245.215 244.232 245.047 244.35 244.86C244.96 243.86 247.35 240.56 251.05 240.86C251.05 240.86 243.05 245.11 244.56 246.86C246.07 248.61 252.19 243.61 254.19 244.11C256.19 244.61 256.32 249.52 267.19 247.74C267.676 247.658 268.174 247.682 268.65 247.81L278.55 250.58C278.844 250.661 279.15 250.683 279.452 250.644C279.755 250.606 280.046 250.507 280.309 250.354C280.573 250.202 280.803 249.998 280.987 249.755C281.171 249.512 281.305 249.235 281.38 248.94C282.15 246.1 282.83 241.1 279.74 238.28Z" fill="white" stroke="#263238" stroke-linecap="round" stroke-linejoin="round"/>
<path d="M249.16 236.92L247.04 237.28C246.006 237.455 245.041 237.912 244.25 238.6L242 240.53C241.617 240.875 241.281 241.268 241 241.7L239.55 243.91C239.393 244.154 239.215 244.385 239.02 244.6C238.16 245.6 235.79 248.37 238.35 247.99" fill="white"/>
<path d="M249.16 236.92L247.04 237.28C246.006 237.455 245.041 237.912 244.25 238.6L242 240.53C241.617 240.875 241.281 241.268 241 241.7L239.55 243.91C239.393 244.154 239.215 244.385 239.02 244.6C238.16 245.6 235.79 248.37 238.35 247.99" stroke="#263238" stroke-linecap="round" stroke-linejoin="round"/>
<path d="M243.19 237.67L241 238.27C240.316 238.437 239.688 238.782 239.18 239.27L237.47 240.91C237.302 241.059 237.151 241.227 237.02 241.41L234.21 245.14C234.21 245.14 232.71 247.78 234.21 247.83" fill="white"/>
<path d="M243.19 237.67L241 238.27C240.316 238.437 239.688 238.782 239.18 239.27L237.47 240.91C237.302 241.059 237.151 241.227 237.02 241.41L234.21 245.14C234.21 245.14 232.71 247.78 234.21 247.83" stroke="#263238" stroke-linecap="round" stroke-linejoin="round"/>
<path d="M307 200.8C306.788 209.942 307.121 219.088 308 228.19C308.049 228.753 307.9 229.316 307.579 229.782C307.258 230.247 306.784 230.586 306.24 230.74C298.289 233.091 290.192 234.912 282 236.19" stroke="#263238" stroke-linecap="round" stroke-linejoin="round"/>
<path d="M307.48 194.6C307.35 195.6 307.24 196.69 307.16 197.8" stroke="#263238" stroke-width="0.75" stroke-linecap="round" stroke-linejoin="round"/>
<path d="M310.83 185.24C309.69 186.24 308.83 188.05 308.24 190.45" stroke="#263238" stroke-width="0.75" stroke-linecap="round" stroke-linejoin="round"/>
<path d="M260.76 179.3C260.76 179.3 261.39 177.3 264.76 176.17C268.13 175.04 279.82 173.25 285.83 176.17C291.84 179.09 280.33 194.98 280.33 194.98L275 202.36L270.25 205.92L268.13 199.59L265.38 196.73C265.38 196.73 259.44 191.86 259.94 187.05C260.44 182.24 260.76 179.3 260.76 179.3Z" fill="white"/>
<path d="M290.27 178.88C289.33 175.59 285.04 174.67 285.04 174.67C264.54 171.17 260.21 178.67 260.21 178.67C257.696 185.444 257.696 192.896 260.21 199.67C260.21 199.67 266.04 197.25 267.04 199.67C268.04 202.09 269.87 207.25 269.87 207.25C272.653 205.682 275.081 203.554 277 201C280.17 196.83 287.61 201 287.61 201C292.43 192.67 290.27 178.88 290.27 178.88ZM285.27 178.64C277.33 203.56 270.33 204.64 270.33 204.64C268 195.48 266 197.48 262.83 191.75C260.29 187.15 261.15 181.33 261.59 179.2C261.642 178.946 261.749 178.706 261.905 178.499C262.061 178.291 262.26 178.121 262.49 178C270.37 174 280.01 175.47 283.98 176.34C284.226 176.391 284.458 176.493 284.661 176.64C284.865 176.787 285.035 176.975 285.16 177.192C285.286 177.409 285.364 177.65 285.39 177.9C285.416 178.15 285.388 178.402 285.31 178.64H285.27Z" fill="#6975E3"/>
<path opacity="0.4" d="M290.27 178.88C289.33 175.59 285.04 174.67 285.04 174.67C264.54 171.17 260.21 178.67 260.21 178.67C257.696 185.444 257.696 192.896 260.21 199.67C260.21 199.67 266.04 197.25 267.04 199.67C268.04 202.09 269.87 207.25 269.87 207.25C272.653 205.682 275.081 203.554 277 201C280.17 196.83 287.61 201 287.61 201C292.43 192.67 290.27 178.88 290.27 178.88ZM285.27 178.64C277.33 203.56 270.33 204.64 270.33 204.64C268 195.48 266 197.48 262.83 191.75C260.29 187.15 261.15 181.33 261.59 179.2C261.642 178.946 261.749 178.706 261.905 178.499C262.061 178.291 262.26 178.121 262.49 178C270.37 174 280.01 175.47 283.98 176.34C284.226 176.391 284.458 176.493 284.661 176.64C284.865 176.787 285.035 176.975 285.16 177.192C285.286 177.409 285.364 177.65 285.39 177.9C285.416 178.15 285.388 178.402 285.31 178.64H285.27Z" fill="white"/>
<path d="M290.27 178.88C289.33 175.59 285.04 174.67 285.04 174.67C264.54 171.17 260.21 178.67 260.21 178.67C257.696 185.444 257.696 192.896 260.21 199.67C260.21 199.67 266.04 197.25 267.04 199.67C268.04 202.09 269.87 207.25 269.87 207.25C272.653 205.682 275.081 203.554 277 201C280.17 196.83 287.61 201 287.61 201C292.43 192.67 290.27 178.88 290.27 178.88ZM285.27 178.64C277.33 203.56 270.33 204.64 270.33 204.64C268 195.48 266 197.48 262.83 191.75C260.29 187.15 261.15 181.33 261.59 179.2C261.642 178.946 261.749 178.706 261.905 178.499C262.061 178.291 262.26 178.121 262.49 178C270.37 174 280.01 175.47 283.98 176.34C284.226 176.391 284.458 176.493 284.661 176.64C284.865 176.787 285.035 176.975 285.16 177.192C285.286 177.409 285.364 177.65 285.39 177.9C285.416 178.15 285.388 178.402 285.31 178.64H285.27Z" stroke="#263238" stroke-linecap="round" stroke-linejoin="round"/>
<path d="M256.8 140.8C256.8 140.8 239.13 144.34 248.86 155.8C259.65 168.57 256.8 140.8 256.8 140.8Z" fill="#263238" stroke="#263238" stroke-linecap="round" stroke-linejoin="round"/>
<path d="M249.83 168.84C249.83 168.84 245.63 151.84 253.63 143.67C261.63 135.5 270.3 133.84 276.8 137.84C283.3 141.84 286 151.84 285 157C284 162.16 284.48 180.66 275.57 188.33C266.66 196 261.18 194.11 255.29 183.66C251.38 176.81 249.53 174.84 249.83 168.84Z" fill="white" stroke="#263238" stroke-linecap="round" stroke-linejoin="round"/>
<path d="M280.8 165.51C280.8 165.51 274.08 158.84 272.02 151.01C269.96 143.18 268.8 141.84 261.13 145.67C253.46 149.5 241.5 144.35 244.63 134.67C247.92 124.51 257.97 137.67 267.63 134.34C277.29 131.01 284.16 137.01 284.17 145.84C284.17 145.84 290.01 151.51 284.17 166.17L280.8 165.51Z" fill="#263238" stroke="#263238" stroke-linecap="round" stroke-linejoin="round"/>
<path d="M278.69 164.39C278.69 164.39 280.39 155.07 285.11 155.93C289.83 156.79 286.46 170.55 280.9 169.05" fill="white"/>
<path d="M278.69 164.39C278.69 164.39 280.39 155.07 285.11 155.93C289.83 156.79 286.46 170.55 280.9 169.05" stroke="#263238" stroke-linecap="round" stroke-linejoin="round"/>
<path d="M256.22 167.55C256.22 167.55 254.36 176.2 254.97 177.68C255.58 179.16 261.29 178.03 261.29 178.03" fill="white"/>
<path d="M256.22 167.55C256.22 167.55 254.36 176.2 254.97 177.68C255.58 179.16 261.29 178.03 261.29 178.03" stroke="#263238" stroke-linecap="round" stroke-linejoin="round"/>
<path d="M262.09 181.8C262.09 181.8 266.57 183.57 270.52 177.68L262.09 181.8Z" fill="white"/>
<path d="M262.09 181.8C262.09 181.8 266.57 183.57 270.52 177.68" stroke="#263238" stroke-linecap="round" stroke-linejoin="round"/>
<path d="M253.15 168.27C253.31 169.07 253.1 169.8 252.68 169.89C252.26 169.98 251.77 169.4 251.6 168.59C251.43 167.78 251.6 167.06 252.07 166.97C252.54 166.88 253 167.46 253.15 168.27Z" fill="#263238"/>
<path d="M264.11 167.39C264.28 168.19 264.11 168.92 263.64 169.01C263.17 169.1 262.74 168.51 262.57 167.71C262.4 166.91 262.57 166.18 263.04 166.09C263.51 166 264 166.58 264.11 167.39Z" fill="#263238"/>
<path d="M255.45 167.89C255.68 170.16 253.45 172.24 250.37 172.54C247.29 172.84 244.69 171.26 244.46 168.99C244.23 166.72 246.62 165.73 249.66 165.42C252.7 165.11 255.23 165.63 255.45 167.89Z" stroke="#263238" stroke-linecap="round" stroke-linejoin="round"/>
<path d="M269.6 166.48C269.83 168.74 267.55 170.83 264.52 171.13C261.49 171.43 258.84 169.84 258.61 167.58C258.38 165.32 260.77 164.31 263.81 164.01C266.85 163.71 269.38 164.21 269.6 166.48Z" stroke="#263238" stroke-linecap="round" stroke-linejoin="round"/>
<path d="M255.45 167.89L258.61 167.58" stroke="#263238" stroke-linecap="round" stroke-linejoin="round"/>
<path d="M269.22 165.34L280.84 158.49" stroke="#263238" stroke-linecap="round" stroke-linejoin="round"/>
<path d="M282.83 176.01L283.38 177.34" stroke="#263238" stroke-linecap="round" stroke-linejoin="round"/>
<path d="M248.9 164.24C248.9 164.24 250.67 161.99 252.84 163.07L248.9 164.24Z" fill="white"/>
<path d="M248.9 164.24C248.9 164.24 250.67 161.99 252.84 163.07" stroke="#263238" stroke-linecap="round" stroke-linejoin="round"/>
<path d="M267 163.23C267 163.23 263.89 160.23 260.89 162.35L267 163.23Z" fill="white"/>
<path d="M267 163.23C267 163.23 263.89 160.23 260.89 162.35" stroke="#263238" stroke-linecap="round" stroke-linejoin="round"/>
<path d="M252.83 135.8C257.56 137.3 265.52 139.14 272.02 137.17C282.02 134.17 278.59 145.37 280.84 148.46" stroke="#7F7F7F" stroke-linecap="round" stroke-linejoin="round"/>
<path d="M248.73 134.3C248.73 134.3 249.52 134.65 250.87 135.13" stroke="#7F7F7F" stroke-linecap="round" stroke-linejoin="round"/>
<path d="M260.68 141.37C261.21 141.21 261.76 141.02 262.34 140.8" stroke="#7F7F7F" stroke-linecap="round" stroke-linejoin="round"/>
<path d="M249.83 140.05C249.83 140.05 251.95 143.32 258.77 141.87" stroke="#7F7F7F" stroke-linecap="round" stroke-linejoin="round"/>
<path d="M275.23 146.46C275.758 150.32 277.212 153.995 279.47 157.17" stroke="#7F7F7F" stroke-linecap="round" stroke-linejoin="round"/>
<path d="M275 142.92C274.986 143.517 275.006 144.115 275.06 144.71" stroke="#7F7F7F" stroke-linecap="round" stroke-linejoin="round"/>
<path opacity="0.3" d="M283.86 250.2C283.677 250.353 283.546 250.558 283.484 250.787C283.422 251.017 283.432 251.26 283.513 251.484C283.594 251.708 283.741 251.901 283.936 252.038C284.13 252.175 284.362 252.249 284.6 252.25C291.36 252.25 309.6 252.33 316.6 251.92C325.35 251.42 318.67 241.92 311.6 245.54C305.19 248.89 291.55 243.31 283.86 250.2Z" fill="black"/>
<path d="M207.71 240.82C207.71 240.82 211.8 229.93 222.06 231.66C232.32 233.39 224.48 241.98 219.54 242.74C219.54 242.74 218.79 239.75 207.71 240.82Z" fill="white" stroke="#263238" stroke-linecap="round" stroke-linejoin="round"/>
<path d="M199 247C197.65 248.35 194.4 248.47 196.59 245.54C198.381 243.183 200.811 241.389 203.59 240.37C208.45 238.2 210.35 238.64 214.75 237.67C219.15 236.7 219.98 238.5 221.5 239.33C225.13 241.33 226 241.67 226.92 243.67C227.84 245.67 228.84 248.27 226 248.27C223.42 248.27 223.25 244 220.75 244.17C218.25 244.34 217 248.27 215.25 248.27H214.59C213.09 248.27 213.01 247.02 213.92 245.06C214.83 243.1 215.84 241.33 215.84 241.33C214.355 242.112 213.168 243.359 212.46 244.88C211.26 247.43 211.04 248.5 208.83 248.5C206.62 248.5 206.83 246.86 208.97 243.24C207.699 244.001 206.648 245.08 205.92 246.37C204.84 248.37 204.27 248.27 202.86 248.27C201 248.27 201.13 245.21 204.42 243.21C204.44 243.21 203.71 242.31 199 247Z" fill="white" stroke="#263238" stroke-linecap="round" stroke-linejoin="round"/>
<path d="M211.88 239.69C211.88 239.69 210.59 239.63 209.77 241.81L211.88 239.69Z" fill="white"/>
<path d="M211.88 239.69C211.88 239.69 210.59 239.63 209.77 241.81" stroke="#263238" stroke-width="0.75" stroke-linecap="round" stroke-linejoin="round"/>
<path d="M376.2 145.54C382.657 150.614 388.805 156.071 394.61 161.88" stroke="#263238" stroke-width="0.75" stroke-linecap="round" stroke-linejoin="round"/>
<path d="M369.22 140.29C370.44 141.17 371.66 142.06 372.86 142.97" stroke="#263238" stroke-width="0.75" stroke-linecap="round" stroke-linejoin="round"/>
<path d="M362.25 135.5C363.503 136.32 364.75 137.16 365.99 138.02" stroke="#263238" stroke-width="0.75" stroke-linecap="round" stroke-linejoin="round"/>
<path d="M311.09 111.3C327.649 116.451 343.479 123.707 358.19 132.89" stroke="#263238" stroke-width="0.75" stroke-linecap="round" stroke-linejoin="round"/>
<path d="M300.17 108.22C302.17 108.733 304.187 109.273 306.22 109.84" stroke="#263238" stroke-width="0.75" stroke-linecap="round" stroke-linejoin="round"/>
<path d="M288.93 105.73C291.13 106.15 293.323 106.61 295.51 107.11" stroke="#263238" stroke-width="0.75" stroke-linecap="round" stroke-linejoin="round"/>
<path d="M278.92 104.06C280.82 104.333 282.713 104.627 284.6 104.94" stroke="#263238" stroke-width="0.75" stroke-linecap="round" stroke-linejoin="round"/>
<path d="M218.61 104.46C237.144 101.573 255.985 101.237 274.61 103.46" stroke="#263238" stroke-width="0.75" stroke-linecap="round" stroke-linejoin="round"/>
<path d="M210.36 105.91C212.06 105.58 213.77 105.26 215.47 104.97" stroke="#263238" stroke-width="0.75" stroke-linecap="round" stroke-linejoin="round"/>
<path d="M202.35 107.66C204.06 107.25 205.76 106.87 207.48 106.51" stroke="#263238" stroke-width="0.75" stroke-linecap="round" stroke-linejoin="round"/>
<path d="M192.51 110.28C194.25 109.77 195.99 109.28 197.74 108.82" stroke="#263238" stroke-width="0.75" stroke-linecap="round" stroke-linejoin="round"/>
<path d="M133 138.89C149.558 127.283 167.759 118.219 187 112" stroke="#263238" stroke-width="0.75" stroke-linecap="round" stroke-linejoin="round"/>
<path d="M125 144.82C126.56 143.613 128.137 142.427 129.73 141.26" stroke="#263238" stroke-width="0.75" stroke-linecap="round" stroke-linejoin="round"/>
<path d="M116.9 151.42C118.61 149.94 120.35 148.5 122.1 147.09" stroke="#263238" stroke-width="0.75" stroke-linecap="round" stroke-linejoin="round"/>
<path d="M105.64 161.88C107.987 159.533 110.373 157.257 112.8 155.05" stroke="#263238" stroke-width="0.75" stroke-linecap="round" stroke-linejoin="round"/>
<path d="M183.18 131.135C186.366 117.769 178.114 104.35 164.748 101.163C151.382 97.9764 137.963 106.229 134.776 119.595C131.59 132.961 139.842 146.38 153.208 149.566C166.574 152.753 179.993 144.501 183.18 131.135Z" fill="#6975E3"/>
<path opacity="0.3" d="M183.18 131.135C186.366 117.769 178.114 104.35 164.748 101.163C151.382 97.9764 137.963 106.229 134.776 119.595C131.59 132.961 139.842 146.38 153.208 149.566C166.574 152.753 179.993 144.501 183.18 131.135Z" fill="white"/>
<path d="M183.18 131.135C186.366 117.769 178.114 104.35 164.748 101.163C151.382 97.9764 137.963 106.229 134.776 119.595C131.59 132.961 139.842 146.38 153.208 149.566C166.574 152.753 179.993 144.501 183.18 131.135Z" stroke="#263238" stroke-width="0.75" stroke-linecap="round" stroke-linejoin="round"/>
<path d="M147 135.13V128.9C147 127.34 146.56 126.9 144.87 126.9V123.85C146.56 123.85 147 123.38 147 121.85V115.62C146.956 115.115 147.023 114.607 147.196 114.13C147.369 113.654 147.645 113.221 148.003 112.863C148.361 112.505 148.794 112.229 149.27 112.056C149.747 111.883 150.255 111.816 150.76 111.86H152.66V114.86H152.11C150.93 114.86 150.32 115.4 150.32 117.27V122.34C150.388 123.004 150.217 123.671 149.837 124.221C149.458 124.771 148.895 125.168 148.25 125.34V125.41C148.895 125.582 149.458 125.979 149.837 126.529C150.217 127.079 150.388 127.745 150.32 128.41V133.49C150.32 135.35 150.93 135.89 152.11 135.89H152.66V138.89H150.76C150.255 138.934 149.747 138.867 149.27 138.694C148.794 138.521 148.361 138.245 148.003 137.887C147.645 137.528 147.369 137.096 147.196 136.62C147.023 136.143 146.956 135.635 147 135.13Z" fill="white" stroke="#263238" stroke-width="0.75" stroke-linecap="round" stroke-linejoin="round"/>
<path d="M165.23 135.84H165.77C166.96 135.84 167.57 135.3 167.57 133.44V128.36C167.504 127.697 167.674 127.032 168.051 126.483C168.428 125.934 168.988 125.536 169.63 125.36V125.29C168.987 125.116 168.426 124.718 168.049 124.168C167.671 123.619 167.502 122.953 167.57 122.29V117.22C167.57 115.35 166.96 114.81 165.77 114.81H165.23V111.81H167.13C167.635 111.766 168.143 111.833 168.62 112.006C169.096 112.179 169.529 112.455 169.887 112.813C170.245 113.171 170.521 113.604 170.694 114.08C170.867 114.557 170.934 115.065 170.89 115.57V121.8C170.89 123.36 171.33 123.8 173.02 123.8V126.85C171.33 126.85 170.89 127.32 170.89 128.85V135.08C170.934 135.585 170.867 136.093 170.694 136.57C170.521 137.046 170.245 137.479 169.887 137.837C169.529 138.195 169.096 138.471 168.62 138.644C168.143 138.817 167.635 138.884 167.13 138.84H165.23V135.84Z" fill="white" stroke="#263238" stroke-width="0.75" stroke-linecap="round" stroke-linejoin="round"/>
<path d="M110.76 157.11H96.41C89.8047 157.11 84.45 162.465 84.45 169.07V183.42C84.45 190.025 89.8047 195.38 96.41 195.38H110.76C117.365 195.38 122.72 190.025 122.72 183.42V169.07C122.72 162.465 117.365 157.11 110.76 157.11Z" fill="#6975E3" stroke="#263238" stroke-width="0.75" stroke-linecap="round" stroke-linejoin="round"/>
<path d="M89.71 177.17V175.32L97.36 172.02V174.02L92.09 176.25L97.36 178.47V180.47L89.71 177.17Z" fill="white" stroke="#263238" stroke-width="0.75" stroke-linecap="round" stroke-linejoin="round"/>
<path d="M105.84 167.5H108.22L101.32 185H98.94L105.84 167.5Z" fill="white" stroke="#263238" stroke-width="0.75" stroke-linecap="round" stroke-linejoin="round"/>
<path d="M109.8 178.47L115.07 176.25L109.8 174V172L117.45 175.3V177.15L109.8 180.45V178.47Z" fill="white" stroke="#263238" stroke-width="0.75" stroke-linecap="round" stroke-linejoin="round"/>
<path d="M356.133 124.55C358.802 113.133 351.711 101.714 340.294 99.0442C328.877 96.3747 317.457 103.466 314.788 114.883C312.119 126.3 319.21 137.72 330.627 140.389C342.044 143.059 353.464 135.967 356.133 124.55Z" fill="#6975E3"/>
<path opacity="0.2" d="M356.178 124.339C358.848 112.922 351.756 101.503 340.339 98.8335C328.922 96.164 317.503 103.255 314.833 114.672C312.164 126.09 319.255 137.509 330.672 140.178C342.09 142.848 353.509 135.756 356.178 124.339Z" fill="black"/>
<path d="M356.133 124.55C358.802 113.133 351.711 101.714 340.294 99.0442C328.877 96.3747 317.457 103.466 314.788 114.883C312.119 126.3 319.21 137.72 330.627 140.389C342.044 143.059 353.464 135.967 356.133 124.55Z" stroke="#263238" stroke-width="0.75" stroke-linecap="round" stroke-linejoin="round"/>
<path d="M322.375 123.909V115.109C322.375 112.579 323.685 111.109 326.165 111.109C328.645 111.109 329.955 112.599 329.955 115.109V116.839H327.525V114.949C327.525 113.869 327.005 113.429 326.235 113.429C325.465 113.429 324.955 113.869 324.955 114.949V124.089C324.955 125.169 325.465 125.589 326.235 125.589C327.005 125.589 327.525 125.169 327.525 124.089V121.589H329.955V123.909C329.955 126.429 328.645 127.909 326.165 127.909C323.685 127.909 322.375 126.429 322.375 123.909Z" fill="white" stroke="#263238" stroke-width="0.75" stroke-linecap="round" stroke-linejoin="round"/>
<path d="M334.315 120.419H331.175V118.589H334.315V115.439H336.135V118.589H339.275V120.419H336.135V123.619H334.315V120.419Z" fill="white" stroke="#263238" stroke-width="0.75" stroke-linecap="round" stroke-linejoin="round"/>
<path d="M343.675 120.419H340.535V118.589H343.675V115.439H345.495V118.589H348.635V120.419H345.495V123.619H343.675V120.419Z" fill="white" stroke="#263238" stroke-width="0.75" stroke-linecap="round" stroke-linejoin="round"/>
<path d="M254.07 78.24H234.88C227.369 78.24 221.28 84.3289 221.28 91.84V111.03C221.28 118.541 227.369 124.63 234.88 124.63H254.07C261.581 124.63 267.67 118.541 267.67 111.03V91.84C267.67 84.3289 261.581 78.24 254.07 78.24Z" fill="#6975E3" stroke="#263238" stroke-width="0.75" stroke-linecap="round" stroke-linejoin="round"/>
<path d="M230.53 106.32V96.55C230.53 93.74 231.99 92.08 234.74 92.08C237.49 92.08 239 93.74 239 96.55V98.47H236.3V96.36C236.3 95.17 235.72 94.68 234.87 94.68C234.02 94.68 233.44 95.17 233.44 96.36V106.52C233.44 107.72 234.01 108.19 234.87 108.19C235.73 108.19 236.3 107.72 236.3 106.52V103.74H239V106.32C239 109.12 237.54 110.78 234.79 110.78C232.04 110.78 230.53 109.12 230.53 106.32Z" fill="white" stroke="#263238" stroke-width="0.75" stroke-linecap="round" stroke-linejoin="round"/>
<path d="M240.23 106.21V105.21H242.93V106.46C242.93 107.76 243.5 108.23 244.41 108.23C245.32 108.23 245.89 107.76 245.89 106.41C245.89 104.9 245.32 103.94 243.45 102.3C241.06 100.2 240.28 98.72 240.28 96.64C240.28 93.78 241.76 92.12 244.54 92.12C247.32 92.12 248.7 93.78 248.7 96.69V97.44H246V96.51C246 95.21 245.48 94.72 244.57 94.72C243.66 94.72 243.15 95.21 243.15 96.46C243.15 97.71 243.74 98.74 245.61 100.38C248 102.48 248.76 103.94 248.76 106.2C248.76 109.2 247.25 110.82 244.44 110.82C241.63 110.82 240.23 109.12 240.23 106.21Z" fill="white" stroke="#263238" stroke-width="0.75" stroke-linecap="round" stroke-linejoin="round"/>
<path d="M249.9 106.21V105.21H252.6V106.46C252.6 107.76 253.17 108.23 254.08 108.23C254.99 108.23 255.56 107.76 255.56 106.41C255.56 104.9 254.99 103.94 253.12 102.3C250.73 100.2 249.95 98.72 249.95 96.64C249.95 93.78 251.43 92.12 254.21 92.12C256.99 92.12 258.37 93.78 258.37 96.69V97.44H255.66V96.51C255.66 95.21 255.14 94.72 254.23 94.72C253.32 94.72 252.81 95.21 252.81 96.46C252.81 97.71 253.4 98.74 255.27 100.38C257.66 102.48 258.42 103.94 258.42 106.2C258.42 109.2 256.91 110.82 254.1 110.82C251.29 110.82 249.9 109.12 249.9 106.21Z" fill="white" stroke="#263238" stroke-width="0.75" stroke-linecap="round" stroke-linejoin="round"/>
<path d="M412.223 169.549C414.936 158.171 407.911 146.748 396.532 144.035C385.154 141.322 373.731 148.347 371.018 159.725C368.305 171.104 375.33 182.527 386.708 185.24C398.087 187.953 409.51 180.928 412.223 169.549Z" fill="#6975E3"/>
<path opacity="0.3" d="M412.223 149.55C414.936 138.171 407.911 126.748 396.532 124.035C385.154 121.322 373.731 128.347 371.018 139.725C368.305 151.104 375.33 162.527 386.708 165.24C398.087 167.953 409.51 160.928 412.223 149.55Z" fill="white"/>
<path d="M412.223 169.549C414.936 158.171 407.911 146.748 396.532 144.035C385.154 141.322 373.731 148.347 371.018 159.725C368.305 171.104 375.33 182.527 386.708 185.24C398.087 187.953 409.51 180.928 412.223 169.549Z" stroke="#263238" stroke-width="0.75" stroke-linecap="round" stroke-linejoin="round"/>
<path d="M383.27 148.83V140.42C383.27 138.01 384.52 136.58 386.89 136.58C389.26 136.58 390.51 138.01 390.51 140.42V142.08H388.19V140.27C388.19 139.27 387.69 138.81 386.96 138.81C386.23 138.81 385.73 139.24 385.73 140.27V149C385.73 150 386.22 150.43 386.96 150.43C387.7 150.43 388.19 150.03 388.19 149V146.61H390.51V148.82C390.51 151.23 389.26 152.66 386.89 152.66C384.52 152.66 383.27 151.24 383.27 148.83Z" fill="white" stroke="#263238" stroke-width="0.75" stroke-linecap="round" stroke-linejoin="round"/>
<path d="M392.53 148H391.43L391.61 146.26H392.71L393.13 142.17H392L392.18 140.42H393.3L393.68 136.82H395.62L395.24 140.42H396.83L397.21 136.82H399.16L398.78 140.42H399.92L399.74 142.17H398.6L398.17 146.26H399.31L399.13 148H398L397.53 152.47H395.59L396.06 148H394.47L394 152.47H392.06L392.53 148ZM396.24 146.26L396.66 142.17H395.08L394.65 146.26H396.24Z" fill="white" stroke="#263238" stroke-width="0.75" stroke-linecap="round" stroke-linejoin="round"/>
<path d="M141.23 408.51H137.52L136.52 261.25H141.23V408.51Z" fill="#858585" stroke="#263238" stroke-linecap="round" stroke-linejoin="round"/>
<path d="M144.93 408.51H141.23V261.25H145.93L144.93 408.51Z" fill="#999999" stroke="#263238" stroke-linecap="round" stroke-linejoin="round"/>
<path d="M352.99 252.24H98.78V261.26H352.99V252.24Z" fill="#263238" stroke="#263238" stroke-linecap="round" stroke-linejoin="round"/>
<path d="M406.11 252.24H349.19V261.26H406.11V252.24Z" fill="#858585" stroke="#263238" stroke-linecap="round" stroke-linejoin="round"/>
<path d="M364.52 261.25H111.8V276.11H364.52V261.25Z" fill="#6975E3" stroke="#263238" stroke-miterlimit="10"/>
<path d="M364.52 276.12H393.95V261.26H364.52V276.12Z" fill="#6975E3"/>
<path opacity="0.3" d="M364.52 276.12H393.95V261.26H364.52V276.12Z" fill="black"/>
<path d="M364.52 276.12H393.95V261.26H364.52V276.12Z" stroke="#263238" stroke-miterlimit="10"/>
<path d="M364.52 408.51H360.82L359.82 261.25H364.52V408.51Z" fill="#858585" stroke="#263238" stroke-linecap="round" stroke-linejoin="round"/>
<path d="M368.23 408.51H364.52V261.25H369.23L368.23 408.51Z" fill="#999999" stroke="#263238" stroke-linecap="round" stroke-linejoin="round"/>
<path d="M111.8 408.51H108.09L107.09 261.25H111.8V408.51Z" fill="#858585" stroke="#263238" stroke-linecap="round" stroke-linejoin="round"/>
<path d="M115.5 408.51H111.8V261.25H116.5L115.5 408.51Z" fill="#999999" stroke="#263238" stroke-linecap="round" stroke-linejoin="round"/>
<path d="M393.95 408.51H390.24L389.24 261.25H393.95V408.51Z" fill="#858585" stroke="#263238" stroke-linecap="round" stroke-linejoin="round"/>
<path d="M397.65 408.51H393.95V261.25H398.65L397.65 408.51Z" fill="#999999" stroke="#263238" stroke-linecap="round" stroke-linejoin="round"/>
<path d="M263.05 251.24H233.26C232.967 251.237 232.688 251.119 232.482 250.911C232.276 250.703 232.16 250.423 232.16 250.13V247.67L264.16 248.67V250.13C264.16 250.424 264.043 250.707 263.835 250.915C263.627 251.123 263.344 251.24 263.05 251.24Z" fill="#858585" stroke="#263238" stroke-linecap="round" stroke-linejoin="round"/>
<path d="M228.83 251.24H168.94C168.447 251.222 167.972 251.051 167.58 250.752C167.188 250.453 166.898 250.04 166.75 249.57L153.89 207.83C153.794 207.586 153.76 207.323 153.79 207.063C153.821 206.802 153.917 206.554 154.067 206.34C154.218 206.126 154.42 205.952 154.654 205.835C154.888 205.718 155.148 205.662 155.41 205.67H215.3C215.792 205.686 216.267 205.855 216.659 206.152C217.051 206.449 217.341 206.861 217.49 207.33L230.35 249.07C230.446 249.314 230.48 249.578 230.449 249.839C230.418 250.099 230.323 250.348 230.172 250.563C230.022 250.778 229.82 250.952 229.586 251.07C229.352 251.188 229.092 251.247 228.83 251.24Z" fill="#999999" stroke="#263238" stroke-linecap="round" stroke-linejoin="round"/>
<path d="M233 249.07L220.14 207.33C219.991 206.861 219.701 206.449 219.309 206.152C218.917 205.855 218.442 205.686 217.95 205.67H215.3C215.792 205.686 216.267 205.855 216.659 206.152C217.051 206.449 217.341 206.861 217.49 207.33L230.35 249.07C230.446 249.314 230.48 249.578 230.449 249.839C230.418 250.099 230.323 250.348 230.172 250.563C230.022 250.778 229.82 250.952 229.586 251.07C229.352 251.188 229.092 251.247 228.83 251.24H231.52C231.779 251.24 232.034 251.177 232.263 251.056C232.491 250.935 232.687 250.76 232.833 250.546C232.979 250.332 233.07 250.086 233.1 249.829C233.129 249.571 233.094 249.311 233 249.07Z" fill="#858585" stroke="#263238" stroke-linecap="round" stroke-linejoin="round"/>
<path d="M195.83 228.45C195.903 228.915 195.874 229.39 195.743 229.842C195.612 230.294 195.384 230.712 195.074 231.066C194.764 231.42 194.38 231.702 193.949 231.891C193.518 232.08 193.05 232.172 192.58 232.16C191.56 232.134 190.581 231.747 189.82 231.068C189.058 230.389 188.562 229.461 188.42 228.45C188.346 227.986 188.376 227.511 188.507 227.059C188.637 226.607 188.866 226.19 189.176 225.837C189.487 225.484 189.871 225.203 190.302 225.015C190.733 224.827 191.2 224.737 191.67 224.75C192.688 224.777 193.664 225.164 194.426 225.841C195.187 226.518 195.684 227.442 195.83 228.45Z" fill="white" stroke="#263238" stroke-linecap="round" stroke-linejoin="round"/>
</svg>
